# Blender v2.83.1 OBJ File: ''
# www.blender.org
mtllib floater.mtl
o Cube_Cube.002
v 2.133675 0.670645 -1.066678
v 2.174739 -0.431989 -0.650155
v 0.110681 -0.879390 -0.984811
v -0.336092 0.531243 -1.375673
v 1.471057 0.611372 -1.376367
v 1.619908 -0.889966 -0.868441
v 2.599552 0.682614 -0.743337
v 0.208507 -1.177026 -0.772768
v 2.213474 -0.882685 -0.526964
v -0.134229 0.197829 -0.910772
v 1.780395 -1.207777 -0.475072
v 1.511393 0.383181 -0.889473
v -0.452272 1.222538 -0.787300
v 2.133675 0.670645 1.066649
v 2.174739 -0.431989 0.650126
v 0.110681 -0.879390 0.984783
v -0.336092 0.531243 1.375644
v 3.248389 0.725959 -0.000014
v 0.060073 -1.236722 -0.011307
v 2.553233 -0.720357 -0.000014
v 1.036560 0.399774 -0.006714
v 1.471057 0.611372 1.376338
v 1.619908 -0.889966 0.868412
v 1.992856 0.310361 0.003258
v 1.926355 -1.079945 -0.000014
v 1.680443 -0.848499 -0.000014
v 2.599552 0.682614 0.743308
v 0.208507 -1.177026 0.772739
v 2.213474 -0.882685 0.526935
v -0.134229 0.197829 0.910743
v 1.780395 -1.207777 0.475043
v 1.511393 0.383181 0.889444
v -0.458879 0.345189 -0.000014
v -0.096712 1.236430 -0.000000
v -0.452272 1.222547 0.787300
v -4.819060 0.670645 -1.066678
v -4.860124 -0.431989 -0.650155
v -2.796066 -0.879390 -0.984811
v -2.349293 0.531243 -1.375673
v -4.156443 0.611372 -1.376367
v -4.305293 -0.889966 -0.868441
v -3.737002 0.223625 -1.152457
v -1.342693 -1.129765 -0.914277
v -1.342693 0.522493 -1.391643
v -5.284937 0.682614 -0.743337
v -2.893892 -1.177026 -0.772768
v -4.898859 -0.882684 -0.526964
v -2.551156 0.197829 -0.910772
v -4.465780 -1.207777 -0.475072
v -4.196778 0.383182 -0.889473
v -1.342693 -1.199370 -0.745833
v -1.342693 0.203124 -0.874456
v -2.189429 1.228450 -0.810448
v -1.342693 1.203949 -0.776504
v -4.819060 0.670645 1.066649
v -4.860124 -0.431989 0.650126
v -2.796066 -0.879390 0.984783
v -2.349293 0.531243 1.375644
v -5.933774 0.725960 -0.000014
v -2.745458 -1.236721 -0.011307
v -5.238619 -0.720357 -0.000014
v -2.661308 0.067466 -0.000014
v -4.156443 0.611372 1.376338
v -4.305293 -0.889966 0.868412
v -4.559489 0.096034 -0.000014
v -4.611740 -1.079945 -0.000014
v -3.737002 0.223625 1.152428
v -4.365828 -0.848498 -0.000014
v -4.159657 0.105667 -0.000014
v -1.342693 -1.129765 0.914248
v -1.342693 0.522493 1.391614
v -1.342693 -1.235297 -0.000014
v -1.342693 -0.014167 -0.000014
v -5.284937 0.682614 0.743308
v -2.893892 -1.177026 0.772739
v -4.898859 -0.882684 0.526935
v -2.551156 0.197829 0.910743
v -4.465780 -1.207777 0.475043
v -4.196778 0.383182 0.889444
v -1.342693 -1.199370 0.745804
v -1.342693 0.203124 0.874427
v -2.226506 0.345189 -0.000014
v -2.149313 1.265185 -0.000000
v -1.342693 1.310071 -0.000000
v -2.189429 1.228450 0.810448
v -1.342693 1.203949 0.776504
vt 0.583721 0.750000
vt 0.625000 0.750000
vt 0.625000 0.963899
vt 0.583721 0.963899
vt 0.833721 0.687433
vt 0.875000 0.687433
vt 0.875000 0.750000
vt 0.833721 0.750000
vt 0.333721 0.571582
vt 0.375000 0.553532
vt 0.390129 0.623659
vt 0.339682 0.625000
vt 0.375000 0.053532
vt 0.625000 0.062567
vt 0.625000 0.125000
vt 0.411101 0.125000
vt 0.125000 0.553532
vt 0.119917 0.625472
vt 0.625000 0.687433
vt 0.625000 0.750000
vt 0.375000 0.750000
vt 0.375000 0.963899
vt 0.125000 0.625000
vt 0.125000 0.562567
vt 0.625000 0.750000
vt 0.625000 0.687433
vt 0.375000 1.000000
vt 0.375000 0.750000
vt 0.625000 0.625000
vt 0.625000 0.687433
vt 0.625000 0.625000
vt 0.122530 0.454751
vt 0.125000 0.500000
vt 0.833721 0.625000
vt 0.340492 0.450317
vt 0.411101 0.000000
vt 0.625000 0.000000
vt 0.378707 0.458186
vt 0.875000 0.625000
vt 0.625000 0.687433
vt 0.625000 0.625000
vt 0.583721 0.750000
vt 0.583721 0.963899
vt 0.625000 0.963899
vt 0.625000 0.750000
vt 0.833721 0.687433
vt 0.833721 0.750000
vt 0.875000 0.750000
vt 0.875000 0.687433
vt 0.333721 0.571582
vt 0.375000 0.553532
vt 0.375000 0.053532
vt 0.625000 0.062567
vt 0.125000 0.553532
vt 0.625000 0.687433
vt 0.625000 0.750000
vt 0.375000 0.750000
vt 0.375000 0.963899
vt 0.125000 0.562567
vt 0.625000 0.687433
vt 0.625000 0.750000
vt 0.375000 0.750000
vt 0.375000 1.000000
vt 0.625000 0.687433
vt 0.122530 0.454751
vt 0.125000 0.500000
vt 0.340492 0.450317
vt 0.411101 0.000000
vt 0.625000 0.000000
vt 0.378707 0.458186
vt 0.625000 0.687433
vt 0.583721 0.750000
vt 0.583721 0.963899
vt 0.625000 0.963899
vt 0.625000 0.750000
vt 0.833721 0.687433
vt 0.833721 0.750000
vt 0.875000 0.750000
vt 0.875000 0.687433
vt 0.333721 0.571582
vt 0.339682 0.625000
vt 0.390129 0.623659
vt 0.375000 0.553532
vt 0.375000 0.053532
vt 0.411101 0.125000
vt 0.625000 0.125000
vt 0.625000 0.062567
vt 0.125000 0.553532
vt 0.119917 0.625472
vt 0.625000 0.687433
vt 0.625000 0.750000
vt 0.375000 0.750000
vt 0.375000 0.963899
vt 0.625000 0.625000
vt 0.625000 0.625000
vt 0.625000 0.687433
vt 0.122530 0.454751
vt 0.833721 0.625000
vt 0.340492 0.450317
vt 0.411101 0.000000
vt 0.625000 0.000000
vt 0.378707 0.458186
vt 0.875000 0.625000
vt 0.583721 0.750000
vt 0.625000 0.750000
vt 0.625000 0.963899
vt 0.583721 0.963899
vt 0.833721 0.687433
vt 0.875000 0.687433
vt 0.875000 0.750000
vt 0.833721 0.750000
vt 0.333721 0.571582
vt 0.375000 0.553532
vt 0.375000 0.053532
vt 0.625000 0.062567
vt 0.125000 0.553532
vt 0.625000 0.687433
vt 0.625000 0.750000
vt 0.375000 0.750000
vt 0.375000 0.963899
vt 0.625000 0.687433
vt 0.122530 0.454751
vt 0.340492 0.450317
vt 0.411101 0.000000
vt 0.625000 0.000000
vt 0.378707 0.458186
vn 0.4758 -0.2632 -0.8392
vn -0.2841 0.8672 0.4089
vn 0.5418 -0.8403 -0.0193
vn 0.7727 -0.3169 -0.5500
vn 0.0316 -0.9980 0.0551
vn -0.0686 0.8515 0.5199
vn 0.0394 -0.2873 -0.9570
vn 0.0063 -0.9980 -0.0627
vn 0.0038 0.8332 0.5530
vn 0.0073 -0.2717 -0.9623
vn 0.6035 0.5133 -0.6102
vn 0.0421 -0.7135 -0.6994
vn -0.0364 0.9986 -0.0383
vn 0.0888 -0.6793 -0.7285
vn 0.5028 -0.2605 -0.8242
vn 0.4584 -0.4109 -0.7881
vn -0.2969 0.9288 0.2218
vn 0.0253 0.9963 -0.0822
vn -0.0230 0.1051 -0.9942
vn 0.4758 -0.2632 0.8392
vn -0.2841 0.8672 -0.4089
vn 0.5418 -0.8403 0.0193
vn 0.7727 -0.3169 0.5500
vn 0.0321 -0.9980 -0.0541
vn -0.0686 0.8515 -0.5199
vn 0.0394 -0.2873 0.9570
vn 0.0067 -0.9981 0.0617
vn 0.0038 0.8332 -0.5530
vn 0.0073 -0.2717 0.9623
vn 0.6070 0.5114 0.6082
vn 0.0421 -0.7135 0.6994
vn -0.0367 0.9986 0.0379
vn 0.0888 -0.6793 0.7285
vn 0.5028 -0.2605 0.8242
vn 0.4584 -0.4109 0.7881
vn -0.2974 0.9283 -0.2231
vn 0.0253 0.9963 0.0822
vn -0.0230 0.1050 0.9942
vn -0.4758 -0.2632 -0.8392
vn 0.2841 0.8672 0.4089
vn -0.5418 -0.8403 -0.0193
vn -0.7727 -0.3169 -0.5500
vn -0.0316 -0.9980 0.0551
vn 0.0686 0.8515 0.5199
vn -0.0394 -0.2873 -0.9570
vn -0.0063 -0.9980 -0.0627
vn -0.0038 0.8332 0.5530
vn -0.0073 -0.2717 -0.9623
vn -0.9306 0.3657 -0.0180
vn -0.0421 -0.7135 -0.6994
vn 0.0599 0.9688 0.2404
vn -0.0888 -0.6793 -0.7285
vn -0.5028 -0.2605 -0.8242
vn -0.4584 -0.4109 -0.7881
vn 0.3492 0.8707 0.3463
vn -0.0104 0.9959 -0.0894
vn 0.0349 0.0909 -0.9952
vn -0.4758 -0.2632 0.8392
vn 0.2841 0.8672 -0.4089
vn -0.5418 -0.8403 0.0193
vn -0.7727 -0.3169 0.5500
vn -0.0321 -0.9980 -0.0541
vn 0.0686 0.8515 -0.5199
vn -0.0394 -0.2873 0.9570
vn -0.0067 -0.9981 0.0617
vn -0.0038 0.8332 -0.5530
vn -0.0073 -0.2717 0.9623
vn -0.9306 0.3657 0.0180
vn -0.0421 -0.7135 0.6994
vn 0.0599 0.9688 -0.2404
vn -0.0888 -0.6793 0.7285
vn -0.5028 -0.2605 0.8242
vn -0.4584 -0.4109 0.7881
vn 0.3492 0.8707 -0.3463
vn -0.0104 0.9959 0.0894
vn 0.0349 0.0909 0.9952
usemtl None
s off
f 5/1/1 1/2/1 2/3/1 6/4/1
f 12/5/2 7/6/2 1/7/2 5/8/2
f 11/9/3 9/10/3 20/11/3 25/12/3
f 9/13/4 7/14/4 18/15/4 20/16/4
f 8/17/5 11/9/5 25/12/5 19/18/5
f 10/19/6 12/5/6 5/8/6 4/20/6
f 4/21/7 5/1/7 6/4/7 3/22/7
f 8/17/8 19/18/8 72/23/8 51/24/8
f 10/19/9 4/20/9 44/25/9 52/26/9
f 4/21/10 3/22/10 43/27/10 44/28/10
f 21/29/11 10/19/11 13/30/11 34/31/11
f 3/32/12 8/17/12 51/24/12 43/33/12
f 21/29/13 24/34/13 12/5/13 10/19/13
f 3/32/14 6/35/14 11/9/14 8/17/14
f 2/36/15 1/37/15 7/14/15 9/13/15
f 6/35/16 2/38/16 9/10/16 11/9/16
f 24/34/17 18/39/17 7/6/17 12/5/17
f 34/31/18 13/30/18 54/40/18 84/41/18
f 10/19/19 52/26/19 54/40/19 13/30/19
f 22/42/20 23/43/20 15/44/20 14/45/20
f 32/46/21 22/47/21 14/48/21 27/49/21
f 31/50/22 25/12/22 20/11/22 29/51/22
f 29/52/23 20/16/23 18/15/23 27/53/23
f 28/54/24 19/18/24 25/12/24 31/50/24
f 30/55/25 17/56/25 22/47/25 32/46/25
f 17/57/26 16/58/26 23/43/26 22/42/26
f 28/54/27 80/59/27 72/23/27 19/18/27
f 30/55/28 81/60/28 71/61/28 17/56/28
f 17/57/29 71/62/29 70/63/29 16/58/29
f 21/29/30 34/31/30 35/64/30 30/55/30
f 16/65/31 70/66/31 80/59/31 28/54/31
f 21/29/32 30/55/32 32/46/32 24/34/32
f 16/65/33 28/54/33 31/50/33 23/67/33
f 15/68/34 29/52/34 27/53/34 14/69/34
f 23/67/35 31/50/35 29/51/35 15/70/35
f 24/34/36 32/46/36 27/49/36 18/39/36
f 34/31/37 84/41/37 86/71/37 35/64/37
f 30/55/38 35/64/38 86/71/38 81/60/38
f 40/72/39 41/73/39 37/74/39 36/75/39
f 50/76/40 40/77/40 36/78/40 45/79/40
f 49/80/41 66/81/41 61/82/41 47/83/41
f 47/84/42 61/85/42 59/86/42 45/87/42
f 46/88/43 60/89/43 66/81/43 49/80/43
f 48/90/44 39/91/44 40/77/44 50/76/44
f 39/92/45 38/93/45 41/73/45 40/72/45
f 46/88/46 51/24/46 72/23/46 60/89/46
f 48/90/47 52/26/47 44/25/47 39/91/47
f 39/92/48 44/28/48 43/27/48 38/93/48
f 62/94/49 83/95/49 53/96/49 48/90/49
f 38/97/50 43/33/50 51/24/50 46/88/50
f 62/94/51 48/90/51 50/76/51 65/98/51
f 38/97/52 46/88/52 49/80/52 41/99/52
f 37/100/53 47/84/53 45/87/53 36/101/53
f 41/99/54 49/80/54 47/83/54 37/102/54
f 65/98/55 50/76/55 45/79/55 59/103/55
f 83/95/56 84/41/56 54/40/56 53/96/56
f 48/90/57 53/96/57 54/40/57 52/26/57
f 63/104/58 55/105/58 56/106/58 64/107/58
f 79/108/59 74/109/59 55/110/59 63/111/59
f 78/112/60 76/113/60 61/82/60 66/81/60
f 76/114/61 74/115/61 59/86/61 61/85/61
f 75/116/62 78/112/62 66/81/62 60/89/62
f 77/117/63 79/108/63 63/111/63 58/118/63
f 58/119/64 63/104/64 64/107/64 57/120/64
f 75/116/65 60/89/65 72/23/65 80/59/65
f 77/117/66 58/118/66 71/61/66 81/60/66
f 58/119/67 57/120/67 70/63/67 71/62/67
f 62/94/68 77/117/68 85/121/68 83/95/68
f 57/122/69 75/116/69 80/59/69 70/66/69
f 62/94/70 65/98/70 79/108/70 77/117/70
f 57/122/71 64/123/71 78/112/71 75/116/71
f 56/124/72 55/125/72 74/115/72 76/114/72
f 64/123/73 56/126/73 76/113/73 78/112/73
f 65/98/74 59/103/74 74/109/74 79/108/74
f 83/95/75 85/121/75 86/71/75 84/41/75
f 77/117/76 81/60/76 86/71/76 85/121/76
l 72 73
l 19 33
l 42 69
l 68 69
l 60 82
l 67 69
